<svg width="34" height="34" viewBox="0 0 34 34" fill="none" xmlns="http://www.w3.org/2000/svg">
<path d="M17 33C25.8366 33 33 25.8366 33 17C33 8.16344 25.8366 1 17 1C8.16344 1 1 8.16344 1 17C1 25.8366 8.16344 33 17 33Z" fill="#B26B45" stroke="#B26B45" stroke-width="2" stroke-linecap="round" stroke-linejoin="round"/>
<path fill-rule="evenodd" clip-rule="evenodd" d="M11 23C12.206 20.334 14.206 19 17 19C19.794 19 21.794 20.334 23 23" fill="#B26B45"/>
<path d="M11 23C12.206 20.334 14.206 19 17 19C19.794 19 21.794 20.334 23 23" stroke="black" stroke-width="2" stroke-linecap="round" stroke-linejoin="round"/>
<path fill-rule="evenodd" clip-rule="evenodd" d="M9 11C9.402 11.8887 10.0687 12.3333 11 12.3333C11.9313 12.3333 12.598 11.8887 13 11" fill="#B26B45"/>
<path d="M9 11C9.402 11.8887 10.0687 12.3333 11 12.3333C11.9313 12.3333 12.598 11.8887 13 11" stroke="black" stroke-width="2" stroke-linecap="round" stroke-linejoin="round"/>
<path fill-rule="evenodd" clip-rule="evenodd" d="M21 11C21.402 11.8887 22.0687 12.3333 23 12.3333C23.9313 12.3333 24.598 11.8887 25 11" fill="#B26B45"/>
<path d="M21 11C21.402 11.8887 22.0687 12.3333 23 12.3333C23.9313 12.3333 24.598 11.8887 25 11" stroke="black" stroke-width="2" stroke-linecap="round" stroke-linejoin="round"/>
</svg>
