<svg width="38" height="35" viewBox="0 0 38 35" fill="none" xmlns="http://www.w3.org/2000/svg">
<path d="M36.9933 20.7674L36.9933 20.7677C36.4923 24.312 34.7847 27.4668 32.2986 29.809C32.2962 29.8112 32.2867 29.8202 32.2579 29.8191C32.2264 29.818 32.1958 29.8046 32.1745 29.7833L23.0786 20.6875H36.8856C36.9159 20.6875 36.9495 20.7011 36.9745 20.7286C36.9859 20.7411 36.9908 20.7516 36.9925 20.7568C36.993 20.7585 36.9934 20.7599 36.9936 20.7613C36.9938 20.7631 36.9937 20.7649 36.9933 20.7674ZM34.8058 15.3265L34.8058 15.3266L34.8058 15.3268C34.8061 15.3303 34.8071 15.3445 34.7846 15.3676C34.7597 15.3932 34.7267 15.4062 34.6967 15.4062H20.3998V1.10991C20.3998 1.07984 20.4129 1.04657 20.4386 1.02141C20.4618 0.998826 20.4759 0.999849 20.4791 1.00008L20.4793 1.00009L20.4794 1.0001C28.1477 1.52903 34.2769 7.65828 34.8058 15.3265ZM15.1185 19.6875V20.1016L15.4114 20.3945L26.066 31.0498L26.066 31.0499C26.0885 31.0723 26.1013 31.1052 26.0993 31.1394C26.0983 31.155 26.0945 31.1641 26.0928 31.1675L26.0927 31.1675C26.0918 31.1693 26.0912 31.1704 26.0875 31.173L26.0872 31.1732C23.6292 32.9168 20.6418 33.9584 17.4069 33.9988L17.4068 33.9988C9.18568 34.1021 2.09432 27.3467 1.81481 19.1319C1.54268 11.124 7.38808 4.43971 15.0389 3.35858L15.0393 3.35851C15.0436 3.3579 15.0456 3.35815 15.0492 3.35932C15.0543 3.361 15.0648 3.3658 15.0773 3.37722C15.1048 3.40229 15.1185 3.436 15.1185 3.46628V19.6875Z" stroke="#525252" stroke-width="2"/>
</svg>
