<svg width="35" height="35" viewBox="0 0 35 35" fill="none" xmlns="http://www.w3.org/2000/svg">
<path d="M1.19994 18.7463L1.20503 18.7408L1.21004 18.7352L16.9509 1.24533C16.9514 1.24486 16.9518 1.24438 16.9522 1.2439C17.0222 1.1673 17.1074 1.10606 17.2023 1.06407C17.2978 1.02182 17.401 1 17.5054 1C17.6099 1 17.7131 1.02182 17.8086 1.06407C17.9035 1.10606 17.9887 1.1673 18.0587 1.2439C18.0591 1.24438 18.0595 1.24486 18.06 1.24533L33.8008 18.7352L33.8042 18.7389C33.9308 18.8782 34.0004 19.0602 33.999 19.2485V19.2558C33.999 19.4546 33.92 19.6452 33.7795 19.7857C33.639 19.9262 33.4484 20.0052 33.2496 20.0052H29.7509H28.7509V21.0052V33.2506C28.7509 33.4494 28.672 33.64 28.5314 33.7805C28.3909 33.9211 28.2003 34 28.0016 34H7.00933C6.81058 34 6.61998 33.9211 6.47945 33.7805C6.33892 33.64 6.25997 33.4494 6.25997 33.2506V21.0052V20.0052H5.25997L1.76127 20.0051L1.75446 20.0052C1.60822 20.0062 1.46488 19.9644 1.34212 19.8849C1.21936 19.8054 1.12253 19.6918 1.06358 19.5579C1.00463 19.4241 0.986128 19.2759 1.01036 19.1317C1.03459 18.9875 1.10049 18.8535 1.19994 18.7463Z" stroke="#525252" stroke-width="2"/>
</svg>
