<svg width="32" height="35" viewBox="0 0 32 35" fill="none" xmlns="http://www.w3.org/2000/svg">
<path d="M29.7938 31.0399L29.8532 31.3368L30.0673 31.5509C30.3958 31.8794 30.4307 32.0775 30.4307 32.1562V33.25C30.4307 33.5111 30.3337 33.6829 30.2081 33.798C30.0695 33.925 29.8751 34 29.6807 34H7.36816C4.2017 34 1.80566 31.604 1.80566 28.4375V6.5625C1.80566 3.39603 4.2017 1 7.36816 1H29.6807C30.027 1 30.1867 1.09998 30.2587 1.17195C30.3307 1.24392 30.4307 1.40363 30.4307 1.75V24.5C30.4307 24.7235 30.3926 24.8323 30.3722 24.8731C30.3629 24.8916 30.3564 24.8983 30.3544 24.9003C30.3524 24.9023 30.3457 24.9088 30.3272 24.9181L29.9158 25.1238L29.8043 25.57C29.6605 26.1449 29.6104 27.25 29.6104 28.2461C29.6104 29.2618 29.6634 30.3876 29.7938 31.0399ZM26.8369 31.625H27.8369V30.625V26.25V25.25H26.8369H7.36816C5.78823 25.25 4.18066 26.5089 4.18066 28.4375C4.18066 29.321 4.47953 30.135 5.07512 30.7305C5.67071 31.3261 6.48467 31.625 7.36816 31.625H26.8369ZM19.9463 20.2344L19.9464 20.2344C20.2364 19.9443 20.3994 19.5509 20.3994 19.1406V16.3125H23.2275C23.6378 16.3125 24.0312 16.1495 24.3213 15.8594L23.6142 15.1523L24.3213 15.8594C24.6114 15.5693 24.7744 15.1759 24.7744 14.7656V11.4844C24.7744 11.0741 24.6114 10.6807 24.3213 10.3906L23.6142 11.0977L24.3213 10.3906C24.0312 10.1005 23.6378 9.9375 23.2275 9.9375H20.3994V7.10938C20.3994 6.69912 20.2364 6.30567 19.9463 6.01557L19.2392 6.72268L19.9463 6.01557C19.6562 5.72548 19.2628 5.5625 18.8525 5.5625H15.5713C15.161 5.5625 14.7676 5.72547 14.4775 6.01557C14.1874 6.30567 14.0244 6.69912 14.0244 7.10938V9.9375H11.1963C10.786 9.9375 10.3926 10.1005 10.1025 10.3906C9.81238 10.6807 9.64941 11.0741 9.64941 11.4844V14.7656C9.64941 15.1759 9.81238 15.5693 10.1025 15.8594C10.3926 16.1495 10.786 16.3125 11.1963 16.3125H14.0244V19.1406C14.0244 19.5509 14.1874 19.9443 14.4775 20.2344L15.1846 19.5273L14.4775 20.2344C14.7676 20.5245 15.161 20.6875 15.5713 20.6875H18.8525C19.2628 20.6875 19.6562 20.5245 19.9463 20.2344Z" stroke="#525252" stroke-width="2"/>
</svg>
