<svg width="35" height="35" viewBox="0 0 35 35" fill="none" xmlns="http://www.w3.org/2000/svg">
<path d="M29.8938 19.7875L29.765 20.4823L30.377 20.8357L33.2878 22.5166C32.5574 24.8072 31.3431 26.8783 29.7649 28.6092L26.8681 26.9364L26.2575 26.5838L25.7203 27.0404C24.5421 28.042 23.1942 28.8204 21.7424 29.3371L21.0777 29.5736V30.2792V33.6267C18.8262 34.1123 16.4088 34.1364 14.0455 33.6267V30.2792V29.5696L13.3756 29.3353C11.9203 28.8262 10.5758 28.0496 9.40734 27.0443L8.8695 26.5816L8.25508 26.9364L5.3585 28.6091C3.78034 26.8717 2.56653 24.8014 1.83627 22.5191L4.73912 20.8428L5.35108 20.4894L5.2223 19.7946C4.9412 18.2779 4.9412 16.7221 5.2223 15.2054L5.35108 14.5106L4.73912 14.1572L1.83618 12.4809C2.56659 10.1913 3.7806 8.12114 5.35821 6.39091L8.24715 8.06309L8.85798 8.41666L9.39575 7.95956C10.574 6.95803 11.9219 6.17956 13.3737 5.66294L14.0384 5.42639V4.72081V1.37333C16.2899 0.887655 18.7073 0.863588 21.0706 1.37334V4.71376V5.42339L21.7405 5.65768C23.1958 6.16673 24.5403 6.94333 25.7088 7.94862L26.2466 8.41135L26.861 8.05655L29.7576 6.38387C31.3358 8.12121 32.5496 10.1916 33.2798 12.4739L30.377 14.1502L29.765 14.5035L29.8938 15.1984C30.1749 16.715 30.1749 18.2709 29.8938 19.7875ZM10.9094 17.4929C10.9094 21.1571 13.8904 24.1381 17.5545 24.1381C21.2187 24.1381 24.1997 21.1571 24.1997 17.4929C24.1997 13.8288 21.2187 10.8478 17.5545 10.8478C13.8904 10.8478 10.9094 13.8288 10.9094 17.4929Z" stroke="#525252" stroke-width="2"/>
</svg>
