<svg width="23" height="20" viewBox="0 0 23 20" fill="none" xmlns="http://www.w3.org/2000/svg">
<path d="M15.0029 18.4995H16.0029V17.4995V13.741L16.5034 13.2405V18.1246C16.5034 18.6077 16.1111 19 15.6281 19H1.87537C1.39229 19 1 18.6077 1 18.1246V4.37195C1 3.88887 1.39229 3.49658 1.87537 3.49658H11.7604L11.2599 3.99707H2.50049H1.50049V4.99707V17.4995V18.4995H2.50049H15.0029ZM7.61274 12.2387L15.46 4.39136L18.1091 7.04044L10.2618 14.8877L7.28201 15.2185L7.61274 12.2387ZM19.4453 1.15251L21.3519 3.05913L22.059 2.35202L21.3519 3.05913C21.5537 3.2609 21.5573 3.59387 21.3505 3.80299C21.3502 3.8033 21.3499 3.8036 21.3496 3.80391L20.4063 4.74715L17.7572 2.09807L18.7005 1.15482C18.7008 1.15453 18.7011 1.15423 18.7014 1.15394C18.9105 0.947127 19.2435 0.950728 19.4453 1.15251Z" fill="#525252" stroke="#525252" stroke-width="2"/>
</svg>
