<svg width="500" height="500" viewBox="0 0 500 500" fill="none" xmlns="http://www.w3.org/2000/svg">
<path d="M313 212.5C313 195.924 306.415 180.027 294.694 168.306C282.973 156.585 267.076 150 250.5 150C233.924 150 218.027 156.585 206.306 168.306C194.585 180.027 188 195.924 188 212.5C188 215.815 189.317 218.995 191.661 221.339C194.005 223.683 197.185 225 200.5 225C203.815 225 206.995 223.683 209.339 221.339C211.683 218.995 213 215.815 213 212.5C213 205.083 215.199 197.833 219.32 191.666C223.44 185.499 229.297 180.693 236.149 177.855C243.002 175.016 250.542 174.274 257.816 175.721C265.09 177.168 271.772 180.739 277.017 185.983C282.261 191.228 285.833 197.91 287.279 205.184C288.726 212.458 287.984 219.998 285.145 226.851C282.307 233.703 277.501 239.56 271.334 243.68C265.167 247.801 257.917 250 250.5 250C247.185 250 244.005 251.317 241.661 253.661C239.317 256.005 238 259.185 238 262.5V287.5C238 290.815 239.317 293.995 241.661 296.339C244.005 298.683 247.185 300 250.5 300C253.815 300 256.995 298.683 259.339 296.339C261.683 293.995 263 290.815 263 287.5V273.75C277.117 270.868 289.805 263.198 298.916 252.036C308.028 240.875 313.003 226.908 313 212.5V212.5Z" fill="#FFB72A"/>
<path d="M250.5 350C257.404 350 263 344.404 263 337.5C263 330.596 257.404 325 250.5 325C243.596 325 238 330.596 238 337.5C238 344.404 243.596 350 250.5 350Z" fill="#FFB72A"/>
<path d="M250 492.5C383.929 492.5 492.5 383.929 492.5 250C492.5 116.071 383.929 7.5 250 7.5C116.071 7.5 7.5 116.071 7.5 250C7.5 383.929 116.071 492.5 250 492.5Z" stroke="#FFB72A" stroke-width="15"/>
</svg>
